<svg width="356" height="259" viewBox="0 0 356 259" fill="none" xmlns="http://www.w3.org/2000/svg">
<g clip-path="url(#clip0_3_6274)">
<g filter="url(#filter0_d_3_6274)">
<path d="M305.349 68.2302L84 112.593L126.962 147.617L135.368 198.985L162.92 177.971L192.339 203.188L305.349 68.2302Z" fill="url(#paint0_linear_3_6274)"/>
<path d="M302.43 69.6306L127.102 147.707L135.323 199.078L140.271 164.895L162.555 178.068L140.972 160.925" fill="url(#paint1_linear_3_6274)"/>
</g>
<ellipse cx="177" cy="250.5" rx="53" ry="8.5" fill="#EEEEEE" fill-opacity="0.34"/>
<path d="M14.3427 69.9999C13.9351 69.9999 13.509 69.9999 13.0829 69.9739V69.696C13.5127 69.7146 13.9462 69.722 14.3575 69.722H14.5576V69.9999H14.3316H14.3427ZM16.4287 69.9332L16.4101 69.6553C16.9029 69.6219 17.3957 69.5775 17.8922 69.5182L17.9256 69.7961C17.4254 69.8517 16.9252 69.8998 16.4287 69.9332ZM11.2415 69.8554C10.7598 69.8109 10.2596 69.759 9.75939 69.696L9.79273 69.4181C10.2892 69.4811 10.782 69.5367 11.2748 69.5775L11.2415 69.8554ZM19.7633 69.5071L19.7077 69.2366C20.1931 69.1403 20.6748 69.0328 21.1453 68.9105L21.2157 69.181C20.7304 69.3033 20.2413 69.4144 19.7522 69.5071H19.7633ZM7.90681 69.4181C7.42143 69.3329 6.92865 69.2403 6.44697 69.1403L6.50256 68.8698C6.98423 68.9698 7.47331 69.0625 7.95498 69.144L7.90681 69.4181ZM4.62404 68.7253C4.13866 68.6067 3.65699 68.477 3.18643 68.3548L3.26054 68.088C3.72739 68.2214 4.20906 68.3511 4.69073 68.4585L4.62404 68.7253ZM22.9757 68.6364L22.8831 68.3733C23.3499 68.2103 23.8094 68.0287 24.254 67.836L24.3651 68.088C23.9279 68.2844 23.4611 68.4845 22.9868 68.6364H22.9757ZM1.40796 67.7916C0.522429 67.4989 0.00741032 67.2877 0 67.2877L0.107447 67.0283C0.107447 67.0283 0.618759 67.2358 1.49688 67.5285L1.40796 67.7916ZM26.0362 67.2617L25.8991 67.0172C26.3252 66.7801 26.7475 66.5207 27.1551 66.2502L27.307 66.4837C26.9069 66.7578 26.4845 67.0024 26.0473 67.2617H26.0362ZM28.815 65.3906L28.6446 65.172C29.0373 64.8682 29.4227 64.557 29.7895 64.242L29.971 64.4532C29.6116 64.7793 29.2226 65.0868 28.8261 65.3906H28.815ZM31.3419 63.1972L31.1493 62.9971C31.4976 62.6525 31.8421 62.2968 32.1719 61.9374L32.3757 62.1264C32.0422 62.4895 31.7088 62.8489 31.3531 63.1972H31.3419ZM33.5836 60.7073L33.365 60.5369C33.6725 60.1664 33.9689 59.7514 34.2468 59.3549L34.4765 59.5143C34.2023 59.9181 33.8948 60.3331 33.5947 60.7036L33.5836 60.7073ZM35.488 57.9544L35.2509 57.8099C35.5065 57.3875 35.7474 56.954 35.9734 56.5242L36.2179 56.6539C36.003 57.0874 35.7474 57.5246 35.4991 57.9544H35.488ZM37.0182 54.9717L36.7663 54.8606C36.9553 54.4197 37.1368 53.9565 37.311 53.4934L37.574 53.5897C37.411 54.0603 37.2294 54.5234 37.0294 54.9717H37.0182ZM38.1483 51.8186L37.8815 51.7408C38.0186 51.274 38.1409 50.7923 38.2521 50.3144L38.5225 50.3773C38.4225 50.859 38.2965 51.3444 38.1594 51.8112L38.1483 51.8186ZM38.8671 48.547L38.5929 48.5025C38.667 48.0209 38.7263 47.5281 38.7745 47.0427L39.0487 47.0686C39.0153 47.5614 38.9523 48.0579 38.8782 48.547H38.8671ZM39.1635 45.2123H38.8856C38.8856 44.9974 38.8856 44.7825 38.8856 44.5676C38.8856 44.2898 38.8856 44.0119 38.8856 43.7377H39.1635C39.1635 44.0156 39.1635 44.2935 39.1635 44.5751C39.1821 44.7714 39.1784 44.99 39.1746 45.2086L39.1635 45.2123ZM40.5604 44.89C40.3603 44.89 40.1639 44.89 39.9638 44.89V44.6121C40.4513 44.6399 40.9399 44.6399 41.4274 44.6121L41.4459 44.89C41.1754 44.8752 40.8716 44.8863 40.5641 44.8863L40.5604 44.89ZM38.1076 44.6677C37.6164 44.5787 37.1304 44.4637 36.6514 44.3231L36.7292 44.0563C37.1984 44.194 37.6746 44.3066 38.1557 44.3935L38.1076 44.6677ZM43.3133 44.6047L43.2577 44.3342C43.7364 44.2385 44.209 44.1148 44.6731 43.9637L44.7583 44.2268C44.288 44.3791 43.8092 44.5041 43.3244 44.601L43.3133 44.6047ZM34.91 43.6599C34.4551 43.4541 34.0123 43.2228 33.5836 42.967L33.7244 42.7299C34.1449 42.9788 34.5791 43.2039 35.0249 43.4042L34.91 43.6599ZM46.496 43.4857L46.3738 43.2375C46.8097 43.0144 47.2328 42.767 47.6409 42.4965L47.7929 42.7262C47.3743 43.0063 46.9401 43.2624 46.4923 43.4932L46.496 43.4857ZM32.0459 41.9036C31.8014 41.7073 31.5568 41.4961 31.3234 41.2775C31.19 41.1515 31.0603 41.0255 30.9529 40.907L31.1493 40.7106C31.2715 40.8366 31.3975 40.9588 31.5198 41.0811C31.7495 41.296 31.9866 41.4998 32.2275 41.6961L32.0459 41.9036ZM38.7671 41.8814C38.7115 41.3886 38.6411 40.8995 38.5596 40.4253L38.8338 40.3771C38.919 40.8588 38.9894 41.3553 39.0413 41.8592L38.7671 41.8814ZM49.2823 41.5961L49.0971 41.3886C49.4644 41.0652 49.8132 40.7213 50.1419 40.3586L50.3457 40.5476C50.0098 40.9191 49.6536 41.2716 49.2786 41.6035L49.2823 41.5961ZM29.7598 39.436C29.4824 39.0189 29.2536 38.5713 29.0781 38.1021L29.3375 38.0095C29.5042 38.4629 29.7204 38.8966 29.9821 39.3026L29.7598 39.436ZM51.5128 39.0655L51.2831 38.9062C51.4943 38.6098 51.6944 38.2948 51.8833 37.9799C51.9463 37.8761 52.0093 37.7724 52.0686 37.6649L52.3094 37.802C52.2465 37.9095 52.1872 38.0169 52.1242 38.1207C51.9278 38.4727 51.7203 38.7876 51.5091 39.0914L51.5128 39.0655ZM38.1742 38.6098C38.0409 38.1207 37.8927 37.6501 37.7296 37.2092L37.9927 37.1129C38.1557 37.5612 38.3076 38.0392 38.441 38.5357L38.1742 38.6098ZM29.0521 36.2496H28.7743C28.7915 35.7398 28.902 35.2375 29.1003 34.7675L29.356 34.875C29.1737 35.3114 29.0708 35.7769 29.0521 36.2496ZM53.1357 36.1755L52.8837 36.068C53.069 35.6308 53.2542 35.1677 53.4136 34.6971L53.6766 34.786C53.5062 35.2492 53.3247 35.716 53.132 36.1569L53.1357 36.1755ZM36.9701 35.5826C36.7411 35.1551 36.4732 34.7495 36.1698 34.371L36.3847 34.1932C36.6992 34.5856 36.977 35.006 37.2146 35.4493L36.9701 35.5826ZM30.4231 33.4522L30.2526 33.2373C30.6531 32.9144 31.1142 32.6751 31.6087 32.5333L31.6828 32.8001C31.2241 32.9261 30.7947 33.1414 30.4194 33.4336L30.4231 33.4522ZM34.7951 33.2225C34.3775 32.987 33.9246 32.8205 33.4539 32.7297L33.5058 32.4555C34.0061 32.5542 34.4876 32.7318 34.9322 32.9816L34.7951 33.2225ZM54.2176 33.0038L53.9471 32.9335C54.0657 32.4925 54.1805 32.022 54.2991 31.4996L54.5696 31.5588C54.4473 32.0701 54.3325 32.5444 54.2139 32.9853L54.2176 33.0038ZM54.9586 29.7433L54.6844 29.6877L54.9697 28.2353L55.2402 28.2872L54.9586 29.7433ZM55.6181 26.4791L55.3477 26.4161C55.4662 25.8825 55.5848 25.4083 55.7182 24.9711L55.985 25.0452C55.8405 25.4601 55.7219 25.9307 55.6033 26.4605L55.6181 26.4791ZM56.5444 23.2963L56.2851 23.2C56.4506 22.7219 56.6448 22.2541 56.8668 21.7994L57.115 21.9254C56.8952 22.3664 56.6998 22.8191 56.5296 23.2815L56.5444 23.2963ZM58.0895 20.4026L57.8635 20.2359C58.1594 19.8338 58.4825 19.4525 58.8305 19.0947L59.0269 19.2874C58.6853 19.6312 58.3671 19.9976 58.0747 20.3841L58.0895 20.4026ZM60.4052 18.0943L60.2385 17.8683C60.6422 17.5753 61.0615 17.3044 61.4945 17.0568L61.6316 17.3014C61.202 17.54 60.7875 17.8048 60.3904 18.0943H60.4052ZM63.2767 16.4974L63.1656 16.2417C63.5546 16.0787 63.9659 15.9231 64.392 15.7786L64.4809 16.0416C64.0474 16.1639 63.6435 16.3158 63.2619 16.4788L63.2767 16.4974Z" fill="#263238"/>
<path d="M63.0523 11.9745L61.9792 20.1927L66.7798 14.3593L87.198 1.3568L63.0523 11.9745Z" fill="url(#paint2_linear_3_6274)"/>
<path opacity="0.1" d="M63.0523 11.9745L61.9792 20.1927L66.7798 14.3593L87.198 1.3568L63.0523 11.9745Z" fill="black"/>
<path d="M67.9195 15.9652L61.9791 20.1925L66.7797 14.3591L67.9195 15.9652Z" fill="#263238"/>
<path d="M66.7819 14.3589L87.2001 1.35638L72.941 23.1942L66.7819 14.3589Z" fill="url(#paint3_linear_3_6274)"/>
<path d="M63.0532 11.9742L52.4961 8.07031L87.1989 1.35646L63.0532 11.9742Z" fill="url(#paint4_linear_3_6274)"/>
<path d="M266.898 249.15C266.589 249.15 266.265 249.15 265.941 249.13V248.919C266.268 248.933 266.597 248.939 266.909 248.939H267.061V249.15H266.89H266.898ZM268.483 249.099L268.469 248.888C268.844 248.863 269.218 248.829 269.595 248.784L269.621 248.995C269.241 249.037 268.86 249.074 268.483 249.099ZM264.542 249.04C264.176 249.006 263.796 248.967 263.416 248.919L263.441 248.708C263.818 248.756 264.193 248.798 264.567 248.829L264.542 249.04ZM271.017 248.775L270.975 248.57C271.344 248.497 271.71 248.415 272.067 248.322L272.121 248.528C271.752 248.62 271.38 248.705 271.009 248.775H271.017ZM262.008 248.708C261.639 248.643 261.265 248.573 260.899 248.497L260.941 248.291C261.307 248.367 261.679 248.437 262.045 248.499L262.008 248.708ZM259.514 248.181C259.145 248.091 258.779 247.993 258.421 247.9L258.478 247.697C258.832 247.798 259.198 247.897 259.564 247.979L259.514 248.181ZM273.458 248.114L273.388 247.914C273.742 247.79 274.091 247.652 274.429 247.506L274.514 247.697C274.181 247.846 273.827 247.998 273.466 248.114H273.458ZM257.07 247.472C256.397 247.249 256.006 247.089 256 247.089L256.082 246.892C256.082 246.892 256.47 247.049 257.137 247.272L257.07 247.472ZM275.783 247.069L275.679 246.883C276.003 246.703 276.324 246.506 276.634 246.301L276.749 246.478C276.445 246.686 276.124 246.872 275.792 247.069H275.783ZM277.895 245.647L277.765 245.481C278.064 245.25 278.357 245.014 278.635 244.775L278.773 244.935C278.5 245.183 278.205 245.417 277.903 245.647H277.895ZM279.815 243.981L279.669 243.829C279.933 243.567 280.195 243.297 280.446 243.024L280.6 243.167C280.347 243.443 280.094 243.716 279.823 243.981H279.815ZM281.518 242.089L281.352 241.959C281.586 241.678 281.811 241.362 282.022 241.061L282.197 241.182C281.988 241.489 281.755 241.804 281.527 242.086L281.518 242.089ZM282.965 239.997L282.785 239.887C282.979 239.566 283.162 239.237 283.334 238.91L283.52 239.009C283.357 239.338 283.162 239.67 282.974 239.997H282.965ZM284.128 237.731L283.937 237.646C284.08 237.311 284.218 236.959 284.351 236.607L284.55 236.681C284.427 237.038 284.289 237.39 284.137 237.731H284.128ZM284.987 235.335L284.784 235.276C284.888 234.921 284.981 234.555 285.066 234.192L285.271 234.24C285.195 234.606 285.099 234.974 284.995 235.329L284.987 235.335ZM285.533 232.849L285.325 232.815C285.381 232.449 285.426 232.075 285.463 231.706L285.671 231.726C285.646 232.1 285.598 232.477 285.541 232.849H285.533ZM285.758 230.315H285.547C285.547 230.152 285.547 229.988 285.547 229.825C285.547 229.614 285.547 229.403 285.547 229.195H285.758C285.758 229.406 285.758 229.617 285.758 229.831C285.772 229.98 285.769 230.146 285.767 230.312L285.758 230.315ZM286.82 230.07C286.668 230.07 286.518 230.07 286.366 230.07V229.859C286.737 229.88 287.108 229.88 287.478 229.859L287.492 230.07C287.287 230.059 287.056 230.067 286.822 230.067L286.82 230.07ZM284.956 229.901C284.583 229.834 284.213 229.746 283.849 229.639L283.909 229.437C284.265 229.541 284.627 229.627 284.992 229.693L284.956 229.901ZM288.911 229.853L288.869 229.648C289.233 229.575 289.592 229.481 289.945 229.366L290.009 229.566C289.652 229.682 289.288 229.777 288.92 229.851L288.911 229.853ZM282.526 229.135C282.181 228.979 281.844 228.803 281.518 228.609L281.625 228.429C281.945 228.618 282.275 228.789 282.613 228.941L282.526 229.135ZM291.33 229.003L291.237 228.814C291.568 228.645 291.89 228.457 292.2 228.251L292.315 228.426C291.997 228.639 291.667 228.833 291.327 229.009L291.33 229.003ZM280.35 227.801C280.164 227.652 279.978 227.491 279.801 227.325C279.7 227.229 279.601 227.134 279.519 227.044L279.669 226.894C279.762 226.99 279.857 227.083 279.95 227.176C280.125 227.339 280.305 227.494 280.488 227.643L280.35 227.801ZM285.457 227.784C285.415 227.41 285.361 227.038 285.299 226.678L285.508 226.641C285.572 227.007 285.626 227.384 285.665 227.767L285.457 227.784ZM293.447 227.567L293.306 227.41C293.585 227.164 293.85 226.903 294.1 226.627L294.255 226.771C294 227.053 293.729 227.321 293.444 227.573L293.447 227.567ZM278.613 225.926C278.402 225.609 278.228 225.269 278.095 224.912L278.292 224.842C278.419 225.187 278.583 225.516 278.782 225.825L278.613 225.926ZM295.142 225.644L294.967 225.523C295.128 225.298 295.28 225.059 295.423 224.819C295.471 224.741 295.519 224.662 295.564 224.58L295.747 224.684C295.699 224.766 295.654 224.848 295.606 224.926C295.457 225.194 295.299 225.433 295.139 225.664L295.142 225.644ZM285.006 225.298C284.905 224.926 284.793 224.569 284.669 224.234L284.869 224.161C284.992 224.501 285.108 224.865 285.209 225.242L285.006 225.298ZM278.075 223.505H277.864C277.877 223.117 277.961 222.736 278.112 222.379L278.306 222.46C278.167 222.792 278.089 223.146 278.075 223.505ZM296.375 223.448L296.183 223.367C296.324 223.035 296.465 222.683 296.586 222.325L296.786 222.393C296.656 222.745 296.518 223.099 296.372 223.434L296.375 223.448ZM284.092 222.998C283.918 222.673 283.714 222.365 283.483 222.077L283.647 221.942C283.886 222.24 284.097 222.56 284.277 222.897L284.092 222.998ZM279.117 221.379L278.987 221.216C279.292 220.971 279.642 220.789 280.018 220.681L280.074 220.884C279.725 220.979 279.399 221.143 279.114 221.365L279.117 221.379ZM282.439 221.205C282.122 221.026 281.777 220.899 281.42 220.83L281.459 220.622C281.839 220.697 282.205 220.832 282.543 221.022L282.439 221.205ZM297.197 221.038L296.991 220.985C297.082 220.65 297.169 220.292 297.259 219.895L297.464 219.941C297.371 220.329 297.284 220.689 297.194 221.024L297.197 221.038ZM297.76 218.561L297.552 218.519L297.768 217.415L297.974 217.455L297.76 218.561ZM298.261 216.081L298.056 216.033C298.146 215.627 298.236 215.267 298.337 214.935L298.54 214.991C298.43 215.306 298.34 215.664 298.25 216.067L298.261 216.081ZM298.965 213.662L298.768 213.589C298.894 213.226 299.041 212.87 299.21 212.525L299.399 212.621C299.232 212.956 299.083 213.3 298.954 213.651L298.965 213.662ZM300.139 211.464L299.967 211.337C300.192 211.031 300.438 210.742 300.702 210.47L300.851 210.616C300.592 210.877 300.35 211.156 300.128 211.449L300.139 211.464ZM301.899 209.71L301.772 209.538C302.079 209.315 302.397 209.109 302.726 208.921L302.83 209.107C302.504 209.288 302.189 209.49 301.887 209.71H301.899ZM304.08 208.496L303.996 208.302C304.292 208.178 304.604 208.06 304.928 207.95L304.995 208.15C304.666 208.243 304.359 208.358 304.069 208.482L304.08 208.496Z" fill="#263238"/>
<path d="M304.335 203.64L302.181 209.558L306.706 206.024L323.997 199.755L304.335 203.64Z" fill="#E8356D"/>
<path opacity="0.1" d="M304.335 203.64L302.181 209.558L306.706 206.024L323.997 199.755L304.335 203.64Z" fill="black"/>
<path d="M307.286 207.404L302.181 209.557L306.706 206.024L307.286 207.404Z" fill="#263238"/>
<path d="M306.708 206.024L324 199.755L309.816 213.595L306.708 206.024Z" fill="#E8356D"/>
<path d="M304.338 203.64L297.153 199L324 199.755L304.338 203.64Z" fill="#E8356D"/>
<path d="M211.052 21.9755L209.979 30.1937L214.78 24.3603L235.198 11.3578L211.052 21.9755Z" fill="url(#paint5_linear_3_6274)"/>
<path opacity="0.1" d="M211.052 21.9755L209.979 30.1937L214.78 24.3603L235.198 11.3578L211.052 21.9755Z" fill="black"/>
<path d="M215.92 25.9661L209.979 30.1935L214.78 24.36L215.92 25.9661Z" fill="#263238"/>
<path d="M214.782 24.3599L235.2 11.3574L220.941 33.1951L214.782 24.3599Z" fill="url(#paint6_linear_3_6274)"/>
<path d="M211.053 21.9752L200.496 18.0713L235.199 11.3574L211.053 21.9752Z" fill="url(#paint7_linear_3_6274)"/>
<path d="M27.2421 198.951L26.5058 204.591L29.7999 200.588L43.8105 191.666L27.2421 198.951Z" fill="#FACC15"/>
<path opacity="0.1" d="M27.2421 198.951L26.5058 204.591L29.7999 200.588L43.8105 191.666L27.2421 198.951Z" fill="black"/>
<path d="M30.5838 201.69L26.5076 204.59L29.8017 200.588L30.5838 201.69Z" fill="#263238"/>
<path d="M29.8031 200.587L43.8137 191.665L34.0294 206.65L29.8031 200.587Z" fill="#FACC15"/>
<path d="M27.2441 198.951L20 196.272L43.8124 191.666L27.2441 198.951Z" fill="#FACC15"/>
</g>
<defs>
<filter id="filter0_d_3_6274" x="62.1463" y="-16.4879" width="1004.2" height="252.456" filterUnits="userSpaceOnUse" color-interpolation-filters="sRGB">
<feFlood flood-opacity="0" result="BackgroundImageFix"/>
<feColorMatrix in="SourceAlpha" type="matrix" values="0 0 0 0 0 0 0 0 0 0 0 0 0 0 0 0 0 0 127 0" result="hardAlpha"/>
<feOffset dy="10.9268"/>
<feGaussianBlur stdDeviation="10.9268"/>
<feComposite in2="hardAlpha" operator="out"/>
<feColorMatrix type="matrix" values="0 0 0 0 0.533334 0 0 0 0 0.027451 0 0 0 0 0.968627 0 0 0 0.11 0"/>
<feBlend mode="normal" in2="BackgroundImageFix" result="effect1_dropShadow_3_6274"/>
<feBlend mode="normal" in="SourceGraphic" in2="effect1_dropShadow_3_6274" result="shape"/>
</filter>
<linearGradient id="paint0_linear_3_6274" x1="98.963" y1="157.476" x2="331.255" y2="156.253" gradientUnits="userSpaceOnUse">
<stop stop-color="#8807F7"/>
<stop offset="0.40625" stop-color="#520BB3"/>
<stop offset="1" stop-color="#EA00BE"/>
</linearGradient>
<linearGradient id="paint1_linear_3_6274" x1="138.954" y1="155.233" x2="322.952" y2="154.433" gradientUnits="userSpaceOnUse">
<stop stop-color="#8807F7"/>
<stop offset="0.40625" stop-color="#520BB3"/>
<stop offset="1" stop-color="#EA00BE"/>
</linearGradient>
<linearGradient id="paint2_linear_3_6274" x1="62.9234" y1="15.5055" x2="92.2857" y2="8.74345" gradientUnits="userSpaceOnUse">
<stop stop-color="#8807F7"/>
<stop offset="1" stop-color="#EA00BE"/>
</linearGradient>
<linearGradient id="paint3_linear_3_6274" x1="69.1084" y1="17.7273" x2="92.3985" y2="12.4405" gradientUnits="userSpaceOnUse">
<stop stop-color="#8807F7"/>
<stop offset="1" stop-color="#EA00BE"/>
</linearGradient>
<linearGradient id="paint4_linear_3_6274" x1="55.7054" y1="11.4922" x2="91.7361" y2="2.75951" gradientUnits="userSpaceOnUse">
<stop stop-color="#8807F7"/>
<stop offset="1" stop-color="#EA00BE"/>
</linearGradient>
<linearGradient id="paint5_linear_3_6274" x1="210.923" y1="25.5064" x2="240.286" y2="18.7444" gradientUnits="userSpaceOnUse">
<stop stop-color="#8807F7"/>
<stop offset="0.40625" stop-color="#520BB3"/>
<stop offset="1" stop-color="#EA00BE"/>
</linearGradient>
<linearGradient id="paint6_linear_3_6274" x1="217.108" y1="27.7283" x2="240.399" y2="22.4415" gradientUnits="userSpaceOnUse">
<stop stop-color="#8807F7"/>
<stop offset="0.40625" stop-color="#520BB3"/>
<stop offset="1" stop-color="#EA00BE"/>
</linearGradient>
<linearGradient id="paint7_linear_3_6274" x1="203.705" y1="21.4932" x2="239.736" y2="12.7605" gradientUnits="userSpaceOnUse">
<stop stop-color="#8807F7"/>
<stop offset="0.40625" stop-color="#520BB3"/>
<stop offset="1" stop-color="#EA00BE"/>
</linearGradient>
<clipPath id="clip0_3_6274">
<rect width="356" height="259" fill="white"/>
</clipPath>
</defs>
</svg>
